<mxfile host="app.diagrams.net" agent="Mozilla/5.0 (Macintosh; Intel Mac OS X 10_15_7) AppleWebKit/537.36 (KHTML, like Gecko) Chrome/134.0.0.0 Safari/537.36" version="26.1.3">
  <diagram name="Page-1" id="mDVfe03ST_dp4lV0v6sF">
    <mxGraphModel dx="4770" dy="3635" grid="1" gridSize="10" guides="1" tooltips="1" connect="1" arrows="1" fold="1" page="1" pageScale="1" pageWidth="850" pageHeight="1100" math="0" shadow="0">
      <root>
        <mxCell id="0" />
        <mxCell id="1" parent="0" />
        <mxCell id="R-g7RMqh7P6NWGKOjeU7-23" value="backend/" style="whiteSpace=wrap;strokeWidth=2;" vertex="1" parent="1">
          <mxGeometry x="2659" y="790" width="128" height="54" as="geometry" />
        </mxCell>
        <mxCell id="R-g7RMqh7P6NWGKOjeU7-24" value="app/Modules/" style="whiteSpace=wrap;strokeWidth=2;" vertex="1" parent="1">
          <mxGeometry x="2304" y="906" width="161" height="54" as="geometry" />
        </mxCell>
        <mxCell id="R-g7RMqh7P6NWGKOjeU7-25" value="Users/" style="whiteSpace=wrap;strokeWidth=2;" vertex="1" parent="1">
          <mxGeometry x="2331" y="1034" width="107" height="54" as="geometry" />
        </mxCell>
        <mxCell id="R-g7RMqh7P6NWGKOjeU7-26" value="Controllers" style="whiteSpace=wrap;strokeWidth=2;" vertex="1" parent="1">
          <mxGeometry x="1841" y="1254" width="139" height="54" as="geometry" />
        </mxCell>
        <mxCell id="R-g7RMqh7P6NWGKOjeU7-27" value="DTOs" style="whiteSpace=wrap;strokeWidth=2;" vertex="1" parent="1">
          <mxGeometry x="1675" y="1254" width="95" height="54" as="geometry" />
        </mxCell>
        <mxCell id="R-g7RMqh7P6NWGKOjeU7-28" value="Models" style="whiteSpace=wrap;strokeWidth=2;" vertex="1" parent="1">
          <mxGeometry x="2150" y="1566" width="109" height="54" as="geometry" />
        </mxCell>
        <mxCell id="R-g7RMqh7P6NWGKOjeU7-29" value="Repositories" style="whiteSpace=wrap;strokeWidth=2;" vertex="1" parent="1">
          <mxGeometry x="2278" y="1462" width="147" height="54" as="geometry" />
        </mxCell>
        <mxCell id="R-g7RMqh7P6NWGKOjeU7-30" value="Services" style="whiteSpace=wrap;strokeWidth=2;" vertex="1" parent="1">
          <mxGeometry x="2339" y="1358" width="118" height="54" as="geometry" />
        </mxCell>
        <mxCell id="R-g7RMqh7P6NWGKOjeU7-31" value="Requests" style="whiteSpace=wrap;strokeWidth=2;" vertex="1" parent="1">
          <mxGeometry x="2107" y="1254" width="123" height="54" as="geometry" />
        </mxCell>
        <mxCell id="R-g7RMqh7P6NWGKOjeU7-32" value="Routes" style="whiteSpace=wrap;strokeWidth=2;" vertex="1" parent="1">
          <mxGeometry x="2203" y="1150" width="108" height="54" as="geometry" />
        </mxCell>
        <mxCell id="R-g7RMqh7P6NWGKOjeU7-33" value="Database" style="whiteSpace=wrap;strokeWidth=2;" vertex="1" parent="1">
          <mxGeometry x="2404" y="1254" width="125" height="54" as="geometry" />
        </mxCell>
        <mxCell id="R-g7RMqh7P6NWGKOjeU7-34" value="Migrations" style="whiteSpace=wrap;strokeWidth=2;" vertex="1" parent="1">
          <mxGeometry x="2836" y="1358" width="133" height="54" as="geometry" />
        </mxCell>
        <mxCell id="R-g7RMqh7P6NWGKOjeU7-35" value="Seeders" style="whiteSpace=wrap;strokeWidth=2;" vertex="1" parent="1">
          <mxGeometry x="3019" y="1358" width="115" height="54" as="geometry" />
        </mxCell>
        <mxCell id="R-g7RMqh7P6NWGKOjeU7-36" value="Factories" style="whiteSpace=wrap;strokeWidth=2;" vertex="1" parent="1">
          <mxGeometry x="3185" y="1358" width="126" height="54" as="geometry" />
        </mxCell>
        <mxCell id="R-g7RMqh7P6NWGKOjeU7-37" value="Providers" style="whiteSpace=wrap;strokeWidth=2;" vertex="1" parent="1">
          <mxGeometry x="2453" y="1150" width="126" height="54" as="geometry" />
        </mxCell>
        <mxCell id="R-g7RMqh7P6NWGKOjeU7-38" value="Resources" style="whiteSpace=wrap;strokeWidth=2;" vertex="1" parent="1">
          <mxGeometry x="2655" y="1358" width="131" height="54" as="geometry" />
        </mxCell>
        <mxCell id="R-g7RMqh7P6NWGKOjeU7-39" value="Policies" style="whiteSpace=wrap;strokeWidth=2;" vertex="1" parent="1">
          <mxGeometry x="2649" y="1150" width="114" height="54" as="geometry" />
        </mxCell>
        <mxCell id="R-g7RMqh7P6NWGKOjeU7-40" value="Events" style="whiteSpace=wrap;strokeWidth=2;" vertex="1" parent="1">
          <mxGeometry x="2744" y="1254" width="107" height="54" as="geometry" />
        </mxCell>
        <mxCell id="R-g7RMqh7P6NWGKOjeU7-41" value="config/, public/, storage/" style="whiteSpace=wrap;strokeWidth=2;" vertex="1" parent="1">
          <mxGeometry x="2514" y="906" width="247" height="54" as="geometry" />
        </mxCell>
        <mxCell id="R-g7RMqh7P6NWGKOjeU7-42" value=".env, artisan, composer.json" style="whiteSpace=wrap;strokeWidth=2;" vertex="1" parent="1">
          <mxGeometry x="2811" y="894" width="260" height="78" as="geometry" />
        </mxCell>
        <mxCell id="R-g7RMqh7P6NWGKOjeU7-43" value="frontend/" style="whiteSpace=wrap;strokeWidth=2;" vertex="1" parent="1">
          <mxGeometry x="1226" y="790" width="131" height="54" as="geometry" />
        </mxCell>
        <mxCell id="R-g7RMqh7P6NWGKOjeU7-44" value="src/" style="whiteSpace=wrap;strokeWidth=2;" vertex="1" parent="1">
          <mxGeometry x="723" y="906" width="89" height="54" as="geometry" />
        </mxCell>
        <mxCell id="R-g7RMqh7P6NWGKOjeU7-45" value="index.html, package.json, vite.config.ts, Dockerfile" style="whiteSpace=wrap;strokeWidth=2;" vertex="1" parent="1">
          <mxGeometry x="463" y="1022" width="260" height="78" as="geometry" />
        </mxCell>
        <mxCell id="R-g7RMqh7P6NWGKOjeU7-46" value="components/" style="whiteSpace=wrap;strokeWidth=2;" vertex="1" parent="1">
          <mxGeometry x="20" y="1034" width="155" height="54" as="geometry" />
        </mxCell>
        <mxCell id="R-g7RMqh7P6NWGKOjeU7-47" value="layouts/" style="whiteSpace=wrap;strokeWidth=2;" vertex="1" parent="1">
          <mxGeometry x="507" y="1150" width="120" height="54" as="geometry" />
        </mxCell>
        <mxCell id="R-g7RMqh7P6NWGKOjeU7-48" value="modules/" style="whiteSpace=wrap;strokeWidth=2;" vertex="1" parent="1">
          <mxGeometry x="245" y="1034" width="128" height="54" as="geometry" />
        </mxCell>
        <mxCell id="R-g7RMqh7P6NWGKOjeU7-49" value="users/" style="whiteSpace=wrap;strokeWidth=2;" vertex="1" parent="1">
          <mxGeometry x="256" y="1150" width="105" height="54" as="geometry" />
        </mxCell>
        <mxCell id="R-g7RMqh7P6NWGKOjeU7-50" value="components" style="whiteSpace=wrap;strokeWidth=2;" vertex="1" parent="1">
          <mxGeometry x="145" y="1358" width="146" height="54" as="geometry" />
        </mxCell>
        <mxCell id="R-g7RMqh7P6NWGKOjeU7-51" value="views" style="whiteSpace=wrap;strokeWidth=2;" vertex="1" parent="1">
          <mxGeometry x="263" y="1254" width="100" height="54" as="geometry" />
        </mxCell>
        <mxCell id="R-g7RMqh7P6NWGKOjeU7-52" value="services" style="whiteSpace=wrap;strokeWidth=2;" vertex="1" parent="1">
          <mxGeometry x="355" y="1358" width="117" height="54" as="geometry" />
        </mxCell>
        <mxCell id="R-g7RMqh7P6NWGKOjeU7-53" value="store" style="whiteSpace=wrap;strokeWidth=2;" vertex="1" parent="1">
          <mxGeometry x="522" y="1358" width="96" height="54" as="geometry" />
        </mxCell>
        <mxCell id="R-g7RMqh7P6NWGKOjeU7-54" value="stores/" style="whiteSpace=wrap;strokeWidth=2;" vertex="1" parent="1">
          <mxGeometry x="1331" y="1150" width="111" height="54" as="geometry" />
        </mxCell>
        <mxCell id="R-g7RMqh7P6NWGKOjeU7-55" value="router/" style="whiteSpace=wrap;strokeWidth=2;" vertex="1" parent="1">
          <mxGeometry x="1492" y="1150" width="113" height="54" as="geometry" />
        </mxCell>
        <mxCell id="R-g7RMqh7P6NWGKOjeU7-56" value="styles/" style="whiteSpace=wrap;strokeWidth=2;" vertex="1" parent="1">
          <mxGeometry x="560" y="1462" width="109" height="54" as="geometry" />
        </mxCell>
        <mxCell id="R-g7RMqh7P6NWGKOjeU7-57" value="_variables.scss" style="whiteSpace=wrap;strokeWidth=2;" vertex="1" parent="1">
          <mxGeometry x="135" y="1566" width="166" height="54" as="geometry" />
        </mxCell>
        <mxCell id="R-g7RMqh7P6NWGKOjeU7-58" value="_reset.scss" style="whiteSpace=wrap;strokeWidth=2;" vertex="1" parent="1">
          <mxGeometry x="351" y="1566" width="138" height="54" as="geometry" />
        </mxCell>
        <mxCell id="R-g7RMqh7P6NWGKOjeU7-59" value="_buttons.scss" style="whiteSpace=wrap;strokeWidth=2;" vertex="1" parent="1">
          <mxGeometry x="539" y="1566" width="156" height="54" as="geometry" />
        </mxCell>
        <mxCell id="R-g7RMqh7P6NWGKOjeU7-60" value="_mixins.scss" style="whiteSpace=wrap;strokeWidth=2;" vertex="1" parent="1">
          <mxGeometry x="1136" y="1566" width="147" height="54" as="geometry" />
        </mxCell>
        <mxCell id="R-g7RMqh7P6NWGKOjeU7-61" value="main.scss" style="whiteSpace=wrap;strokeWidth=2;" vertex="1" parent="1">
          <mxGeometry x="1333" y="1566" width="128" height="54" as="geometry" />
        </mxCell>
        <mxCell id="R-g7RMqh7P6NWGKOjeU7-62" value="composables/" style="whiteSpace=wrap;strokeWidth=2;" vertex="1" parent="1">
          <mxGeometry x="793" y="1034" width="159" height="54" as="geometry" />
        </mxCell>
        <mxCell id="R-g7RMqh7P6NWGKOjeU7-63" value="utils/" style="whiteSpace=wrap;strokeWidth=2;" vertex="1" parent="1">
          <mxGeometry x="1002" y="1034" width="99" height="54" as="geometry" />
        </mxCell>
        <mxCell id="R-g7RMqh7P6NWGKOjeU7-64" value="App.vue" style="whiteSpace=wrap;strokeWidth=2;" vertex="1" parent="1">
          <mxGeometry x="1151" y="1034" width="118" height="54" as="geometry" />
        </mxCell>
        <mxCell id="R-g7RMqh7P6NWGKOjeU7-65" value="main.ts" style="whiteSpace=wrap;strokeWidth=2;" vertex="1" parent="1">
          <mxGeometry x="1320" y="1034" width="114" height="54" as="geometry" />
        </mxCell>
        <mxCell id="R-g7RMqh7P6NWGKOjeU7-66" value="" style="curved=1;startArrow=none;endArrow=block;exitX=0;exitY=0.68;entryX=0.5;entryY=0;rounded=0;" edge="1" parent="1" source="R-g7RMqh7P6NWGKOjeU7-23" target="R-g7RMqh7P6NWGKOjeU7-24">
          <mxGeometry relative="1" as="geometry">
            <Array as="points">
              <mxPoint x="2384" y="869" />
            </Array>
          </mxGeometry>
        </mxCell>
        <mxCell id="R-g7RMqh7P6NWGKOjeU7-67" value="" style="curved=1;startArrow=none;endArrow=block;exitX=0.5;exitY=1;entryX=0.5;entryY=0;rounded=0;" edge="1" parent="1" source="R-g7RMqh7P6NWGKOjeU7-24" target="R-g7RMqh7P6NWGKOjeU7-25">
          <mxGeometry relative="1" as="geometry">
            <Array as="points" />
          </mxGeometry>
        </mxCell>
        <mxCell id="R-g7RMqh7P6NWGKOjeU7-68" value="" style="curved=1;startArrow=none;endArrow=block;exitX=0;exitY=0.59;entryX=0;entryY=0.23;rounded=0;" edge="1" parent="1" source="R-g7RMqh7P6NWGKOjeU7-25" target="R-g7RMqh7P6NWGKOjeU7-26">
          <mxGeometry relative="1" as="geometry">
            <Array as="points">
              <mxPoint x="1660" y="1125" />
              <mxPoint x="1660" y="1229" />
            </Array>
          </mxGeometry>
        </mxCell>
        <mxCell id="R-g7RMqh7P6NWGKOjeU7-69" value="" style="curved=1;startArrow=none;endArrow=block;exitX=0;exitY=0.6;entryX=0.51;entryY=0;rounded=0;" edge="1" parent="1" source="R-g7RMqh7P6NWGKOjeU7-25" target="R-g7RMqh7P6NWGKOjeU7-27">
          <mxGeometry relative="1" as="geometry">
            <Array as="points">
              <mxPoint x="1723" y="1125" />
            </Array>
          </mxGeometry>
        </mxCell>
        <mxCell id="R-g7RMqh7P6NWGKOjeU7-70" value="" style="curved=1;startArrow=none;endArrow=block;exitX=0;exitY=0.61;entryX=0;entryY=0.37;rounded=0;" edge="1" parent="1" source="R-g7RMqh7P6NWGKOjeU7-25" target="R-g7RMqh7P6NWGKOjeU7-28">
          <mxGeometry relative="1" as="geometry">
            <Array as="points">
              <mxPoint x="1806" y="1125" />
              <mxPoint x="1806" y="1541" />
            </Array>
          </mxGeometry>
        </mxCell>
        <mxCell id="R-g7RMqh7P6NWGKOjeU7-71" value="" style="curved=1;startArrow=none;endArrow=block;exitX=0;exitY=0.67;entryX=0;entryY=0.29;rounded=0;" edge="1" parent="1" source="R-g7RMqh7P6NWGKOjeU7-25" target="R-g7RMqh7P6NWGKOjeU7-29">
          <mxGeometry relative="1" as="geometry">
            <Array as="points">
              <mxPoint x="2015" y="1125" />
              <mxPoint x="2015" y="1437" />
            </Array>
          </mxGeometry>
        </mxCell>
        <mxCell id="R-g7RMqh7P6NWGKOjeU7-72" value="" style="curved=1;startArrow=none;endArrow=block;exitX=0;exitY=0.7;entryX=0;entryY=0.33;rounded=0;" edge="1" parent="1" source="R-g7RMqh7P6NWGKOjeU7-25" target="R-g7RMqh7P6NWGKOjeU7-30">
          <mxGeometry relative="1" as="geometry">
            <Array as="points">
              <mxPoint x="2072" y="1125" />
              <mxPoint x="2072" y="1333" />
            </Array>
          </mxGeometry>
        </mxCell>
        <mxCell id="R-g7RMqh7P6NWGKOjeU7-73" value="" style="curved=1;startArrow=none;endArrow=block;exitX=0;exitY=0.79;entryX=0.5;entryY=0;rounded=0;" edge="1" parent="1" source="R-g7RMqh7P6NWGKOjeU7-25" target="R-g7RMqh7P6NWGKOjeU7-31">
          <mxGeometry relative="1" as="geometry">
            <Array as="points">
              <mxPoint x="2168" y="1125" />
            </Array>
          </mxGeometry>
        </mxCell>
        <mxCell id="R-g7RMqh7P6NWGKOjeU7-74" value="" style="curved=1;startArrow=none;endArrow=block;exitX=0;exitY=1;entryX=0.5;entryY=0;rounded=0;" edge="1" parent="1" source="R-g7RMqh7P6NWGKOjeU7-25" target="R-g7RMqh7P6NWGKOjeU7-32">
          <mxGeometry relative="1" as="geometry">
            <Array as="points">
              <mxPoint x="2257" y="1125" />
            </Array>
          </mxGeometry>
        </mxCell>
        <mxCell id="R-g7RMqh7P6NWGKOjeU7-75" value="" style="curved=1;startArrow=none;endArrow=block;exitX=0.35;exitY=1;entryX=0;entryY=0;rounded=0;" edge="1" parent="1" source="R-g7RMqh7P6NWGKOjeU7-25" target="R-g7RMqh7P6NWGKOjeU7-33">
          <mxGeometry relative="1" as="geometry">
            <Array as="points">
              <mxPoint x="2346" y="1125" />
              <mxPoint x="2346" y="1229" />
            </Array>
          </mxGeometry>
        </mxCell>
        <mxCell id="R-g7RMqh7P6NWGKOjeU7-76" value="" style="curved=1;startArrow=none;endArrow=block;exitX=0;exitY=0.85;entryX=0;entryY=0.39;rounded=0;" edge="1" parent="1" source="R-g7RMqh7P6NWGKOjeU7-33" target="R-g7RMqh7P6NWGKOjeU7-34">
          <mxGeometry relative="1" as="geometry">
            <Array as="points">
              <mxPoint x="2294" y="1333" />
            </Array>
          </mxGeometry>
        </mxCell>
        <mxCell id="R-g7RMqh7P6NWGKOjeU7-77" value="" style="curved=1;startArrow=none;endArrow=block;exitX=0.53;exitY=1;entryX=0;entryY=0.41;rounded=0;" edge="1" parent="1" source="R-g7RMqh7P6NWGKOjeU7-33" target="R-g7RMqh7P6NWGKOjeU7-35">
          <mxGeometry relative="1" as="geometry">
            <Array as="points">
              <mxPoint x="2473" y="1333" />
            </Array>
          </mxGeometry>
        </mxCell>
        <mxCell id="R-g7RMqh7P6NWGKOjeU7-78" value="" style="curved=1;startArrow=none;endArrow=block;exitX=0.87;exitY=1;entryX=0;entryY=0.41;rounded=0;" edge="1" parent="1" source="R-g7RMqh7P6NWGKOjeU7-33" target="R-g7RMqh7P6NWGKOjeU7-36">
          <mxGeometry relative="1" as="geometry">
            <Array as="points">
              <mxPoint x="2555" y="1333" />
            </Array>
          </mxGeometry>
        </mxCell>
        <mxCell id="R-g7RMqh7P6NWGKOjeU7-79" value="" style="curved=1;startArrow=none;endArrow=block;exitX=0.99;exitY=0.98;entryX=0.5;entryY=0;rounded=0;" edge="1" parent="1" source="R-g7RMqh7P6NWGKOjeU7-25" target="R-g7RMqh7P6NWGKOjeU7-37">
          <mxGeometry relative="1" as="geometry">
            <Array as="points">
              <mxPoint x="2516" y="1125" />
            </Array>
          </mxGeometry>
        </mxCell>
        <mxCell id="R-g7RMqh7P6NWGKOjeU7-80" value="" style="curved=1;startArrow=none;endArrow=block;exitX=0.99;exitY=0.78;entryX=0.08;entryY=0;rounded=0;" edge="1" parent="1" source="R-g7RMqh7P6NWGKOjeU7-25" target="R-g7RMqh7P6NWGKOjeU7-38">
          <mxGeometry relative="1" as="geometry">
            <Array as="points">
              <mxPoint x="2614" y="1125" />
              <mxPoint x="2614" y="1333" />
            </Array>
          </mxGeometry>
        </mxCell>
        <mxCell id="R-g7RMqh7P6NWGKOjeU7-81" value="" style="curved=1;startArrow=none;endArrow=block;exitX=0.99;exitY=0.7;entryX=0.49;entryY=0;rounded=0;" edge="1" parent="1" source="R-g7RMqh7P6NWGKOjeU7-25" target="R-g7RMqh7P6NWGKOjeU7-39">
          <mxGeometry relative="1" as="geometry">
            <Array as="points">
              <mxPoint x="2705" y="1125" />
            </Array>
          </mxGeometry>
        </mxCell>
        <mxCell id="R-g7RMqh7P6NWGKOjeU7-82" value="" style="curved=1;startArrow=none;endArrow=block;exitX=0.99;exitY=0.65;entryX=0.5;entryY=0;rounded=0;" edge="1" parent="1" source="R-g7RMqh7P6NWGKOjeU7-25" target="R-g7RMqh7P6NWGKOjeU7-40">
          <mxGeometry relative="1" as="geometry">
            <Array as="points">
              <mxPoint x="2797" y="1125" />
            </Array>
          </mxGeometry>
        </mxCell>
        <mxCell id="R-g7RMqh7P6NWGKOjeU7-83" value="" style="curved=1;startArrow=none;endArrow=block;exitX=0.15;exitY=1;entryX=0.5;entryY=0;rounded=0;" edge="1" parent="1" source="R-g7RMqh7P6NWGKOjeU7-23" target="R-g7RMqh7P6NWGKOjeU7-41">
          <mxGeometry relative="1" as="geometry">
            <Array as="points">
              <mxPoint x="2638" y="869" />
            </Array>
          </mxGeometry>
        </mxCell>
        <mxCell id="R-g7RMqh7P6NWGKOjeU7-84" value="" style="curved=1;startArrow=none;endArrow=block;exitX=1;exitY=0.78;entryX=0.5;entryY=0;rounded=0;" edge="1" parent="1" source="R-g7RMqh7P6NWGKOjeU7-23" target="R-g7RMqh7P6NWGKOjeU7-42">
          <mxGeometry relative="1" as="geometry">
            <Array as="points">
              <mxPoint x="2941" y="869" />
            </Array>
          </mxGeometry>
        </mxCell>
        <mxCell id="R-g7RMqh7P6NWGKOjeU7-85" value="" style="curved=1;startArrow=none;endArrow=block;exitX=0;exitY=0.62;entryX=0.5;entryY=0;rounded=0;" edge="1" parent="1" source="R-g7RMqh7P6NWGKOjeU7-43" target="R-g7RMqh7P6NWGKOjeU7-44">
          <mxGeometry relative="1" as="geometry">
            <Array as="points">
              <mxPoint x="767" y="869" />
            </Array>
          </mxGeometry>
        </mxCell>
        <mxCell id="R-g7RMqh7P6NWGKOjeU7-86" value="" style="curved=1;startArrow=none;endArrow=block;exitX=0;exitY=0.58;entryX=0;entryY=0.29;rounded=0;" edge="1" parent="1" source="R-g7RMqh7P6NWGKOjeU7-44" target="R-g7RMqh7P6NWGKOjeU7-45">
          <mxGeometry relative="1" as="geometry">
            <Array as="points">
              <mxPoint x="77" y="997" />
            </Array>
          </mxGeometry>
        </mxCell>
        <mxCell id="R-g7RMqh7P6NWGKOjeU7-87" value="" style="curved=1;startArrow=none;endArrow=block;exitX=0;exitY=0.58;entryX=0.5;entryY=0;rounded=0;" edge="1" parent="1" source="R-g7RMqh7P6NWGKOjeU7-44" target="R-g7RMqh7P6NWGKOjeU7-46">
          <mxGeometry relative="1" as="geometry">
            <Array as="points">
              <mxPoint x="97" y="997" />
            </Array>
          </mxGeometry>
        </mxCell>
        <mxCell id="R-g7RMqh7P6NWGKOjeU7-88" value="" style="curved=1;startArrow=none;endArrow=block;exitX=0;exitY=0.59;entryX=0;entryY=0.34;rounded=0;" edge="1" parent="1" source="R-g7RMqh7P6NWGKOjeU7-44" target="R-g7RMqh7P6NWGKOjeU7-47">
          <mxGeometry relative="1" as="geometry">
            <Array as="points">
              <mxPoint x="210" y="997" />
              <mxPoint x="210" y="1125" />
            </Array>
          </mxGeometry>
        </mxCell>
        <mxCell id="R-g7RMqh7P6NWGKOjeU7-89" value="" style="curved=1;startArrow=none;endArrow=block;exitX=0;exitY=0.62;entryX=0.5;entryY=0;rounded=0;" edge="1" parent="1" source="R-g7RMqh7P6NWGKOjeU7-44" target="R-g7RMqh7P6NWGKOjeU7-48">
          <mxGeometry relative="1" as="geometry">
            <Array as="points">
              <mxPoint x="309" y="997" />
            </Array>
          </mxGeometry>
        </mxCell>
        <mxCell id="R-g7RMqh7P6NWGKOjeU7-90" value="" style="curved=1;startArrow=none;endArrow=block;exitX=0.5;exitY=1;entryX=0.5;entryY=0;rounded=0;" edge="1" parent="1" source="R-g7RMqh7P6NWGKOjeU7-48" target="R-g7RMqh7P6NWGKOjeU7-49">
          <mxGeometry relative="1" as="geometry">
            <Array as="points" />
          </mxGeometry>
        </mxCell>
        <mxCell id="R-g7RMqh7P6NWGKOjeU7-91" value="" style="curved=1;startArrow=none;endArrow=block;exitX=0;exitY=0.85;entryX=0.31;entryY=0;rounded=0;" edge="1" parent="1" source="R-g7RMqh7P6NWGKOjeU7-49" target="R-g7RMqh7P6NWGKOjeU7-50">
          <mxGeometry relative="1" as="geometry">
            <Array as="points">
              <mxPoint x="165" y="1229" />
              <mxPoint x="165" y="1333" />
            </Array>
          </mxGeometry>
        </mxCell>
        <mxCell id="R-g7RMqh7P6NWGKOjeU7-92" value="" style="curved=1;startArrow=none;endArrow=block;exitX=0.52;exitY=1;entryX=0.49;entryY=0;rounded=0;" edge="1" parent="1" source="R-g7RMqh7P6NWGKOjeU7-49" target="R-g7RMqh7P6NWGKOjeU7-51">
          <mxGeometry relative="1" as="geometry">
            <Array as="points">
              <mxPoint x="312" y="1229" />
            </Array>
          </mxGeometry>
        </mxCell>
        <mxCell id="R-g7RMqh7P6NWGKOjeU7-93" value="" style="curved=1;startArrow=none;endArrow=block;exitX=1;exitY=0.79;entryX=0.8;entryY=0;rounded=0;" edge="1" parent="1" source="R-g7RMqh7P6NWGKOjeU7-49" target="R-g7RMqh7P6NWGKOjeU7-52">
          <mxGeometry relative="1" as="geometry">
            <Array as="points">
              <mxPoint x="482" y="1229" />
              <mxPoint x="482" y="1333" />
            </Array>
          </mxGeometry>
        </mxCell>
        <mxCell id="R-g7RMqh7P6NWGKOjeU7-94" value="" style="curved=1;startArrow=none;endArrow=block;exitX=1;exitY=0.69;entryX=0.5;entryY=0;rounded=0;" edge="1" parent="1" source="R-g7RMqh7P6NWGKOjeU7-49" target="R-g7RMqh7P6NWGKOjeU7-53">
          <mxGeometry relative="1" as="geometry">
            <Array as="points">
              <mxPoint x="570" y="1229" />
            </Array>
          </mxGeometry>
        </mxCell>
        <mxCell id="R-g7RMqh7P6NWGKOjeU7-95" value="" style="curved=1;startArrow=none;endArrow=block;exitX=0;exitY=0.65;entryX=0;entryY=0.45;rounded=0;" edge="1" parent="1" source="R-g7RMqh7P6NWGKOjeU7-44" target="R-g7RMqh7P6NWGKOjeU7-54">
          <mxGeometry relative="1" as="geometry">
            <Array as="points">
              <mxPoint x="408" y="997" />
              <mxPoint x="408" y="1125" />
            </Array>
          </mxGeometry>
        </mxCell>
        <mxCell id="R-g7RMqh7P6NWGKOjeU7-96" value="" style="curved=1;startArrow=none;endArrow=block;exitX=0;exitY=0.66;entryX=0;entryY=0.45;rounded=0;" edge="1" parent="1" source="R-g7RMqh7P6NWGKOjeU7-44" target="R-g7RMqh7P6NWGKOjeU7-55">
          <mxGeometry relative="1" as="geometry">
            <Array as="points">
              <mxPoint x="428" y="997" />
              <mxPoint x="428" y="1125" />
            </Array>
          </mxGeometry>
        </mxCell>
        <mxCell id="R-g7RMqh7P6NWGKOjeU7-97" value="" style="curved=1;startArrow=none;endArrow=block;exitX=0.45;exitY=1;entryX=1;entryY=0.13;rounded=0;" edge="1" parent="1" source="R-g7RMqh7P6NWGKOjeU7-44" target="R-g7RMqh7P6NWGKOjeU7-56">
          <mxGeometry relative="1" as="geometry">
            <Array as="points">
              <mxPoint x="758" y="997" />
              <mxPoint x="758" y="1437" />
            </Array>
          </mxGeometry>
        </mxCell>
        <mxCell id="R-g7RMqh7P6NWGKOjeU7-98" value="" style="curved=1;startArrow=none;endArrow=block;exitX=0;exitY=0.63;entryX=0.5;entryY=0;rounded=0;" edge="1" parent="1" source="R-g7RMqh7P6NWGKOjeU7-56" target="R-g7RMqh7P6NWGKOjeU7-57">
          <mxGeometry relative="1" as="geometry">
            <Array as="points">
              <mxPoint x="218" y="1541" />
            </Array>
          </mxGeometry>
        </mxCell>
        <mxCell id="R-g7RMqh7P6NWGKOjeU7-99" value="" style="curved=1;startArrow=none;endArrow=block;exitX=0;exitY=0.77;entryX=0.5;entryY=0;rounded=0;" edge="1" parent="1" source="R-g7RMqh7P6NWGKOjeU7-56" target="R-g7RMqh7P6NWGKOjeU7-58">
          <mxGeometry relative="1" as="geometry">
            <Array as="points">
              <mxPoint x="420" y="1541" />
            </Array>
          </mxGeometry>
        </mxCell>
        <mxCell id="R-g7RMqh7P6NWGKOjeU7-100" value="" style="curved=1;startArrow=none;endArrow=block;exitX=0.51;exitY=1;entryX=0.5;entryY=0;rounded=0;" edge="1" parent="1" source="R-g7RMqh7P6NWGKOjeU7-56" target="R-g7RMqh7P6NWGKOjeU7-59">
          <mxGeometry relative="1" as="geometry">
            <Array as="points">
              <mxPoint x="617" y="1541" />
            </Array>
          </mxGeometry>
        </mxCell>
        <mxCell id="R-g7RMqh7P6NWGKOjeU7-101" value="" style="curved=1;startArrow=none;endArrow=block;exitX=1;exitY=0.59;entryX=0.5;entryY=0;rounded=0;" edge="1" parent="1" source="R-g7RMqh7P6NWGKOjeU7-56" target="R-g7RMqh7P6NWGKOjeU7-60">
          <mxGeometry relative="1" as="geometry">
            <Array as="points">
              <mxPoint x="1209" y="1541" />
            </Array>
          </mxGeometry>
        </mxCell>
        <mxCell id="R-g7RMqh7P6NWGKOjeU7-102" value="" style="curved=1;startArrow=none;endArrow=block;exitX=1;exitY=0.57;entryX=0.5;entryY=0;rounded=0;" edge="1" parent="1" source="R-g7RMqh7P6NWGKOjeU7-56" target="R-g7RMqh7P6NWGKOjeU7-61">
          <mxGeometry relative="1" as="geometry">
            <Array as="points">
              <mxPoint x="1397" y="1541" />
            </Array>
          </mxGeometry>
        </mxCell>
        <mxCell id="R-g7RMqh7P6NWGKOjeU7-103" value="" style="curved=1;startArrow=none;endArrow=block;exitX=1;exitY=1;entryX=0.5;entryY=0;rounded=0;" edge="1" parent="1" source="R-g7RMqh7P6NWGKOjeU7-44" target="R-g7RMqh7P6NWGKOjeU7-62">
          <mxGeometry relative="1" as="geometry">
            <Array as="points">
              <mxPoint x="872" y="997" />
            </Array>
          </mxGeometry>
        </mxCell>
        <mxCell id="R-g7RMqh7P6NWGKOjeU7-104" value="" style="curved=1;startArrow=none;endArrow=block;exitX=1;exitY=0.69;entryX=0.5;entryY=0;rounded=0;" edge="1" parent="1" source="R-g7RMqh7P6NWGKOjeU7-44" target="R-g7RMqh7P6NWGKOjeU7-63">
          <mxGeometry relative="1" as="geometry">
            <Array as="points">
              <mxPoint x="1052" y="997" />
            </Array>
          </mxGeometry>
        </mxCell>
        <mxCell id="R-g7RMqh7P6NWGKOjeU7-105" value="" style="curved=1;startArrow=none;endArrow=block;exitX=1;exitY=0.62;entryX=0.5;entryY=0;rounded=0;" edge="1" parent="1" source="R-g7RMqh7P6NWGKOjeU7-44" target="R-g7RMqh7P6NWGKOjeU7-64">
          <mxGeometry relative="1" as="geometry">
            <Array as="points">
              <mxPoint x="1210" y="997" />
            </Array>
          </mxGeometry>
        </mxCell>
        <mxCell id="R-g7RMqh7P6NWGKOjeU7-106" value="" style="curved=1;startArrow=none;endArrow=block;exitX=1;exitY=0.59;entryX=0.5;entryY=0;rounded=0;" edge="1" parent="1" source="R-g7RMqh7P6NWGKOjeU7-44" target="R-g7RMqh7P6NWGKOjeU7-65">
          <mxGeometry relative="1" as="geometry">
            <Array as="points">
              <mxPoint x="1376" y="997" />
            </Array>
          </mxGeometry>
        </mxCell>
        <mxCell id="R-g7RMqh7P6NWGKOjeU7-107" value="" style="curved=1;startArrow=none;endArrow=block;exitX=1;exitY=0.8;entryX=1;entryY=0.38;rounded=0;" edge="1" parent="1" source="R-g7RMqh7P6NWGKOjeU7-43" target="R-g7RMqh7P6NWGKOjeU7-45">
          <mxGeometry relative="1" as="geometry">
            <Array as="points">
              <mxPoint x="1503" y="869" />
              <mxPoint x="1503" y="997" />
            </Array>
          </mxGeometry>
        </mxCell>
        <mxCell id="R-g7RMqh7P6NWGKOjeU7-108" value="" style="curved=1;startArrow=none;endArrow=block;exitX=0.34;exitY=1;entryX=0;entryY=0.39;rounded=0;" edge="1" parent="1" source="R-g7RMqh7P6NWGKOjeU7-26" target="R-g7RMqh7P6NWGKOjeU7-30">
          <mxGeometry relative="1" as="geometry">
            <Array as="points">
              <mxPoint x="1868" y="1333" />
            </Array>
          </mxGeometry>
        </mxCell>
        <mxCell id="R-g7RMqh7P6NWGKOjeU7-109" value="" style="curved=1;startArrow=none;endArrow=block;exitX=0.5;exitY=1;entryX=0.67;entryY=0;rounded=0;" edge="1" parent="1" source="R-g7RMqh7P6NWGKOjeU7-30" target="R-g7RMqh7P6NWGKOjeU7-29">
          <mxGeometry relative="1" as="geometry">
            <Array as="points">
              <mxPoint x="2398" y="1437" />
            </Array>
          </mxGeometry>
        </mxCell>
        <mxCell id="R-g7RMqh7P6NWGKOjeU7-110" value="" style="curved=1;startArrow=none;endArrow=block;exitX=0.5;exitY=1;entryX=1;entryY=0.14;rounded=0;" edge="1" parent="1" source="R-g7RMqh7P6NWGKOjeU7-29" target="R-g7RMqh7P6NWGKOjeU7-28">
          <mxGeometry relative="1" as="geometry">
            <Array as="points">
              <mxPoint x="2351" y="1541" />
            </Array>
          </mxGeometry>
        </mxCell>
        <mxCell id="R-g7RMqh7P6NWGKOjeU7-111" value="" style="curved=1;startArrow=none;endArrow=block;exitX=0.5;exitY=1;entryX=0;entryY=0.25;rounded=0;" edge="1" parent="1" source="R-g7RMqh7P6NWGKOjeU7-31" target="R-g7RMqh7P6NWGKOjeU7-30">
          <mxGeometry relative="1" as="geometry">
            <Array as="points">
              <mxPoint x="2168" y="1333" />
            </Array>
          </mxGeometry>
        </mxCell>
        <mxCell id="R-g7RMqh7P6NWGKOjeU7-112" value="" style="curved=1;startArrow=none;endArrow=block;exitX=0.5;exitY=1;entryX=1;entryY=0.31;rounded=0;" edge="1" parent="1" source="R-g7RMqh7P6NWGKOjeU7-32" target="R-g7RMqh7P6NWGKOjeU7-26">
          <mxGeometry relative="1" as="geometry">
            <Array as="points">
              <mxPoint x="2257" y="1229" />
            </Array>
          </mxGeometry>
        </mxCell>
        <mxCell id="R-g7RMqh7P6NWGKOjeU7-113" value="" style="curved=1;startArrow=none;endArrow=block;exitX=0.66;exitY=1;entryX=0;entryY=0.42;rounded=0;" edge="1" parent="1" source="R-g7RMqh7P6NWGKOjeU7-26" target="R-g7RMqh7P6NWGKOjeU7-38">
          <mxGeometry relative="1" as="geometry">
            <Array as="points">
              <mxPoint x="1952" y="1333" />
            </Array>
          </mxGeometry>
        </mxCell>
        <mxCell id="R-g7RMqh7P6NWGKOjeU7-114" value="" style="curved=1;startArrow=none;endArrow=block;exitX=0.5;exitY=1;entryX=0.71;entryY=0;rounded=0;" edge="1" parent="1" source="R-g7RMqh7P6NWGKOjeU7-37" target="R-g7RMqh7P6NWGKOjeU7-33">
          <mxGeometry relative="1" as="geometry">
            <Array as="points">
              <mxPoint x="2516" y="1229" />
            </Array>
          </mxGeometry>
        </mxCell>
        <mxCell id="R-g7RMqh7P6NWGKOjeU7-115" value="" style="curved=1;startArrow=none;endArrow=block;exitX=0.51;exitY=1;entryX=0;entryY=0.42;rounded=0;" edge="1" parent="1" source="R-g7RMqh7P6NWGKOjeU7-27" target="R-g7RMqh7P6NWGKOjeU7-30">
          <mxGeometry relative="1" as="geometry">
            <Array as="points">
              <mxPoint x="1723" y="1333" />
            </Array>
          </mxGeometry>
        </mxCell>
        <mxCell id="R-g7RMqh7P6NWGKOjeU7-116" value="" style="curved=1;startArrow=none;endArrow=block;exitX=0.5;exitY=1;entryX=1;entryY=0.36;rounded=0;" edge="1" parent="1" source="R-g7RMqh7P6NWGKOjeU7-40" target="R-g7RMqh7P6NWGKOjeU7-30">
          <mxGeometry relative="1" as="geometry">
            <Array as="points">
              <mxPoint x="2797" y="1333" />
            </Array>
          </mxGeometry>
        </mxCell>
        <mxCell id="R-g7RMqh7P6NWGKOjeU7-117" value="" style="curved=1;startArrow=none;endArrow=block;exitX=0.33;exitY=1;entryX=0;entryY=0.08;rounded=0;" edge="1" parent="1" source="R-g7RMqh7P6NWGKOjeU7-51" target="R-g7RMqh7P6NWGKOjeU7-52">
          <mxGeometry relative="1" as="geometry">
            <Array as="points">
              <mxPoint x="280" y="1333" />
            </Array>
          </mxGeometry>
        </mxCell>
        <mxCell id="R-g7RMqh7P6NWGKOjeU7-118" value="" style="curved=1;startArrow=none;endArrow=block;exitX=0.74;exitY=1;entryX=0;entryY=0.28;rounded=0;" edge="1" parent="1" source="R-g7RMqh7P6NWGKOjeU7-51" target="R-g7RMqh7P6NWGKOjeU7-53">
          <mxGeometry relative="1" as="geometry">
            <Array as="points">
              <mxPoint x="361" y="1333" />
            </Array>
          </mxGeometry>
        </mxCell>
        <mxCell id="R-g7RMqh7P6NWGKOjeU7-119" value="" style="curved=1;startArrow=none;endArrow=block;exitX=0.85;exitY=1;entryX=1;entryY=0.07;rounded=0;" edge="1" parent="1" source="R-g7RMqh7P6NWGKOjeU7-51" target="R-g7RMqh7P6NWGKOjeU7-50">
          <mxGeometry relative="1" as="geometry">
            <Array as="points">
              <mxPoint x="381" y="1333" />
            </Array>
          </mxGeometry>
        </mxCell>
        <mxCell id="R-g7RMqh7P6NWGKOjeU7-120" value="" style="curved=1;startArrow=none;endArrow=block;exitX=0.5;exitY=1;entryX=0;entryY=0.37;rounded=0;" edge="1" parent="1" source="R-g7RMqh7P6NWGKOjeU7-50" target="R-g7RMqh7P6NWGKOjeU7-56">
          <mxGeometry relative="1" as="geometry">
            <Array as="points">
              <mxPoint x="218" y="1437" />
            </Array>
          </mxGeometry>
        </mxCell>
        <mxCell id="R-g7RMqh7P6NWGKOjeU7-121" value="" style="curved=1;startArrow=none;endArrow=block;exitX=0.5;exitY=1;entryX=1;entryY=0.41;rounded=0;" edge="1" parent="1" source="R-g7RMqh7P6NWGKOjeU7-64" target="R-g7RMqh7P6NWGKOjeU7-47">
          <mxGeometry relative="1" as="geometry">
            <Array as="points">
              <mxPoint x="1210" y="1125" />
            </Array>
          </mxGeometry>
        </mxCell>
        <mxCell id="R-g7RMqh7P6NWGKOjeU7-122" value="" style="curved=1;startArrow=none;endArrow=block;exitX=0.23;exitY=1;entryX=0;entryY=0.28;rounded=0;" edge="1" parent="1" source="R-g7RMqh7P6NWGKOjeU7-65" target="R-g7RMqh7P6NWGKOjeU7-55">
          <mxGeometry relative="1" as="geometry">
            <Array as="points">
              <mxPoint x="1303" y="1125" />
            </Array>
          </mxGeometry>
        </mxCell>
        <mxCell id="R-g7RMqh7P6NWGKOjeU7-123" value="" style="curved=1;startArrow=none;endArrow=block;exitX=0.53;exitY=1;entryX=0.5;entryY=0;rounded=0;" edge="1" parent="1" source="R-g7RMqh7P6NWGKOjeU7-65" target="R-g7RMqh7P6NWGKOjeU7-54">
          <mxGeometry relative="1" as="geometry">
            <Array as="points">
              <mxPoint x="1386" y="1125" />
            </Array>
          </mxGeometry>
        </mxCell>
        <mxCell id="R-g7RMqh7P6NWGKOjeU7-124" value="" style="curved=1;startArrow=none;endArrow=block;exitX=0.99;exitY=0.76;entryX=1;entryY=0.46;rounded=0;" edge="1" parent="1" source="R-g7RMqh7P6NWGKOjeU7-65" target="R-g7RMqh7P6NWGKOjeU7-53">
          <mxGeometry relative="1" as="geometry">
            <Array as="points">
              <mxPoint x="1640" y="1125" />
              <mxPoint x="1640" y="1333" />
            </Array>
          </mxGeometry>
        </mxCell>
      </root>
    </mxGraphModel>
  </diagram>
</mxfile>
